<mxfile host="app.diagrams.net" agent="Mozilla/5.0 (Windows NT 10.0; Win64; x64) AppleWebKit/537.36 (KHTML, like Gecko) Chrome/138.0.0.0 Safari/537.36" version="28.0.7">
  <diagram name="Page-1" id="u7VDxrIEWWDSSuhdMpXd">
    <mxGraphModel dx="1310" dy="752" grid="1" gridSize="10" guides="1" tooltips="1" connect="1" arrows="1" fold="1" page="1" pageScale="1" pageWidth="850" pageHeight="1100" math="0" shadow="0">
      <root>
        <mxCell id="0" />
        <mxCell id="1" parent="0" />
        <mxCell id="RNsQ5LSbvm3LjU5OsM0Z-6" value="Consumer Group&lt;div&gt;&lt;br&gt;&lt;/div&gt;&lt;div&gt;&lt;br&gt;&lt;/div&gt;&lt;div&gt;&lt;br&gt;&lt;/div&gt;&lt;div&gt;&lt;br&gt;&lt;div&gt;&lt;br&gt;&lt;/div&gt;&lt;div&gt;&lt;br&gt;&lt;/div&gt;&lt;div&gt;&lt;br&gt;&lt;/div&gt;&lt;div&gt;&lt;br&gt;&lt;/div&gt;&lt;/div&gt;" style="rounded=0;whiteSpace=wrap;html=1;dashed=1;" vertex="1" parent="1">
          <mxGeometry x="388" y="425" width="200" height="200" as="geometry" />
        </mxCell>
        <mxCell id="RNsQ5LSbvm3LjU5OsM0Z-1" value="Kafka&lt;div&gt;&lt;br&gt;&lt;/div&gt;&lt;div&gt;&lt;br&gt;&lt;/div&gt;&lt;div&gt;&lt;br&gt;&lt;/div&gt;&lt;div&gt;&lt;br&gt;&lt;/div&gt;" style="rounded=0;whiteSpace=wrap;html=1;" vertex="1" parent="1">
          <mxGeometry x="188" y="477" width="160" height="103" as="geometry" />
        </mxCell>
        <mxCell id="RNsQ5LSbvm3LjU5OsM0Z-9" style="edgeStyle=orthogonalEdgeStyle;rounded=0;orthogonalLoop=1;jettySize=auto;html=1;entryX=0;entryY=0.5;entryDx=0;entryDy=0;" edge="1" parent="1" source="RNsQ5LSbvm3LjU5OsM0Z-3" target="RNsQ5LSbvm3LjU5OsM0Z-7">
          <mxGeometry relative="1" as="geometry" />
        </mxCell>
        <mxCell id="RNsQ5LSbvm3LjU5OsM0Z-10" style="edgeStyle=orthogonalEdgeStyle;rounded=0;orthogonalLoop=1;jettySize=auto;html=1;" edge="1" parent="1" source="RNsQ5LSbvm3LjU5OsM0Z-3" target="RNsQ5LSbvm3LjU5OsM0Z-8">
          <mxGeometry relative="1" as="geometry" />
        </mxCell>
        <mxCell id="RNsQ5LSbvm3LjU5OsM0Z-3" value="Transaction Topic" style="rounded=0;whiteSpace=wrap;html=1;" vertex="1" parent="1">
          <mxGeometry x="209" y="523" width="120" height="40" as="geometry" />
        </mxCell>
        <mxCell id="RNsQ5LSbvm3LjU5OsM0Z-5" style="edgeStyle=orthogonalEdgeStyle;rounded=0;orthogonalLoop=1;jettySize=auto;html=1;entryX=0;entryY=0.5;entryDx=0;entryDy=0;" edge="1" parent="1" source="RNsQ5LSbvm3LjU5OsM0Z-4" target="RNsQ5LSbvm3LjU5OsM0Z-3">
          <mxGeometry relative="1" as="geometry" />
        </mxCell>
        <mxCell id="RNsQ5LSbvm3LjU5OsM0Z-4" value="Producer" style="rounded=1;whiteSpace=wrap;html=1;" vertex="1" parent="1">
          <mxGeometry x="80" y="528" width="80" height="30" as="geometry" />
        </mxCell>
        <mxCell id="RNsQ5LSbvm3LjU5OsM0Z-7" value="FastAPI Model Server" style="rounded=0;whiteSpace=wrap;html=1;" vertex="1" parent="1">
          <mxGeometry x="418" y="495" width="140" height="40" as="geometry" />
        </mxCell>
        <mxCell id="RNsQ5LSbvm3LjU5OsM0Z-63" style="edgeStyle=orthogonalEdgeStyle;rounded=0;orthogonalLoop=1;jettySize=auto;html=1;entryX=0.5;entryY=0;entryDx=0;entryDy=0;" edge="1" parent="1" source="RNsQ5LSbvm3LjU5OsM0Z-8" target="RNsQ5LSbvm3LjU5OsM0Z-37">
          <mxGeometry relative="1" as="geometry" />
        </mxCell>
        <mxCell id="RNsQ5LSbvm3LjU5OsM0Z-8" value="FastAPI Model Server" style="rounded=0;whiteSpace=wrap;html=1;" vertex="1" parent="1">
          <mxGeometry x="418" y="563" width="140" height="40" as="geometry" />
        </mxCell>
        <mxCell id="RNsQ5LSbvm3LjU5OsM0Z-42" style="edgeStyle=orthogonalEdgeStyle;rounded=0;orthogonalLoop=1;jettySize=auto;html=1;" edge="1" parent="1" source="RNsQ5LSbvm3LjU5OsM0Z-12">
          <mxGeometry relative="1" as="geometry">
            <mxPoint x="710" y="640" as="targetPoint" />
          </mxGeometry>
        </mxCell>
        <mxCell id="RNsQ5LSbvm3LjU5OsM0Z-12" value="Fraud Database&lt;div&gt;(Postgres)&lt;/div&gt;" style="shape=cylinder3;whiteSpace=wrap;html=1;boundedLbl=1;backgroundOutline=1;size=15;" vertex="1" parent="1">
          <mxGeometry x="660" y="487.25" width="100" height="111.5" as="geometry" />
        </mxCell>
        <mxCell id="RNsQ5LSbvm3LjU5OsM0Z-13" style="edgeStyle=orthogonalEdgeStyle;rounded=0;orthogonalLoop=1;jettySize=auto;html=1;entryX=0;entryY=0;entryDx=0;entryDy=52.5;entryPerimeter=0;" edge="1" parent="1" source="RNsQ5LSbvm3LjU5OsM0Z-7" target="RNsQ5LSbvm3LjU5OsM0Z-12">
          <mxGeometry relative="1" as="geometry" />
        </mxCell>
        <mxCell id="RNsQ5LSbvm3LjU5OsM0Z-14" style="edgeStyle=orthogonalEdgeStyle;rounded=0;orthogonalLoop=1;jettySize=auto;html=1;entryX=0;entryY=0;entryDx=0;entryDy=52.5;entryPerimeter=0;" edge="1" parent="1" source="RNsQ5LSbvm3LjU5OsM0Z-8" target="RNsQ5LSbvm3LjU5OsM0Z-12">
          <mxGeometry relative="1" as="geometry" />
        </mxCell>
        <mxCell id="RNsQ5LSbvm3LjU5OsM0Z-18" style="edgeStyle=orthogonalEdgeStyle;rounded=0;orthogonalLoop=1;jettySize=auto;html=1;" edge="1" parent="1" source="RNsQ5LSbvm3LjU5OsM0Z-15" target="RNsQ5LSbvm3LjU5OsM0Z-17">
          <mxGeometry relative="1" as="geometry" />
        </mxCell>
        <mxCell id="RNsQ5LSbvm3LjU5OsM0Z-15" value="Auditor" style="ellipse;whiteSpace=wrap;html=1;" vertex="1" parent="1">
          <mxGeometry x="119" y="45" width="90" height="40" as="geometry" />
        </mxCell>
        <mxCell id="RNsQ5LSbvm3LjU5OsM0Z-20" style="edgeStyle=orthogonalEdgeStyle;rounded=0;orthogonalLoop=1;jettySize=auto;html=1;" edge="1" parent="1" source="RNsQ5LSbvm3LjU5OsM0Z-17" target="RNsQ5LSbvm3LjU5OsM0Z-19">
          <mxGeometry relative="1" as="geometry" />
        </mxCell>
        <mxCell id="RNsQ5LSbvm3LjU5OsM0Z-17" value="Application" style="rounded=0;whiteSpace=wrap;html=1;" vertex="1" parent="1">
          <mxGeometry x="253" y="50" width="120" height="30" as="geometry" />
        </mxCell>
        <mxCell id="RNsQ5LSbvm3LjU5OsM0Z-49" style="edgeStyle=orthogonalEdgeStyle;rounded=0;orthogonalLoop=1;jettySize=auto;html=1;" edge="1" parent="1" source="RNsQ5LSbvm3LjU5OsM0Z-19" target="RNsQ5LSbvm3LjU5OsM0Z-48">
          <mxGeometry relative="1" as="geometry" />
        </mxCell>
        <mxCell id="RNsQ5LSbvm3LjU5OsM0Z-19" value="DNS" style="rounded=0;whiteSpace=wrap;html=1;" vertex="1" parent="1">
          <mxGeometry x="253" y="100" width="120" height="40" as="geometry" />
        </mxCell>
        <mxCell id="RNsQ5LSbvm3LjU5OsM0Z-27" style="edgeStyle=orthogonalEdgeStyle;rounded=0;orthogonalLoop=1;jettySize=auto;html=1;entryX=0.5;entryY=0;entryDx=0;entryDy=0;" edge="1" parent="1" source="RNsQ5LSbvm3LjU5OsM0Z-21" target="RNsQ5LSbvm3LjU5OsM0Z-25">
          <mxGeometry relative="1" as="geometry" />
        </mxCell>
        <mxCell id="RNsQ5LSbvm3LjU5OsM0Z-28" style="edgeStyle=orthogonalEdgeStyle;rounded=0;orthogonalLoop=1;jettySize=auto;html=1;" edge="1" parent="1" source="RNsQ5LSbvm3LjU5OsM0Z-21" target="RNsQ5LSbvm3LjU5OsM0Z-23">
          <mxGeometry relative="1" as="geometry" />
        </mxCell>
        <mxCell id="RNsQ5LSbvm3LjU5OsM0Z-21" value="Load Balancer" style="rounded=0;whiteSpace=wrap;html=1;" vertex="1" parent="1">
          <mxGeometry x="253" y="222" width="120" height="40" as="geometry" />
        </mxCell>
        <mxCell id="RNsQ5LSbvm3LjU5OsM0Z-47" style="edgeStyle=orthogonalEdgeStyle;rounded=0;orthogonalLoop=1;jettySize=auto;html=1;entryX=0.5;entryY=0;entryDx=0;entryDy=0;" edge="1" parent="1" source="RNsQ5LSbvm3LjU5OsM0Z-23" target="RNsQ5LSbvm3LjU5OsM0Z-33">
          <mxGeometry relative="1" as="geometry">
            <Array as="points">
              <mxPoint x="228" y="390" />
              <mxPoint x="710" y="390" />
            </Array>
          </mxGeometry>
        </mxCell>
        <mxCell id="RNsQ5LSbvm3LjU5OsM0Z-23" value="Web Server" style="rounded=0;whiteSpace=wrap;html=1;" vertex="1" parent="1">
          <mxGeometry x="168" y="310" width="120" height="40" as="geometry" />
        </mxCell>
        <mxCell id="RNsQ5LSbvm3LjU5OsM0Z-46" style="edgeStyle=orthogonalEdgeStyle;rounded=0;orthogonalLoop=1;jettySize=auto;html=1;" edge="1" parent="1" source="RNsQ5LSbvm3LjU5OsM0Z-25" target="RNsQ5LSbvm3LjU5OsM0Z-33">
          <mxGeometry relative="1" as="geometry">
            <Array as="points">
              <mxPoint x="408" y="390" />
              <mxPoint x="710" y="390" />
            </Array>
          </mxGeometry>
        </mxCell>
        <mxCell id="RNsQ5LSbvm3LjU5OsM0Z-25" value="Web Server" style="rounded=0;whiteSpace=wrap;html=1;" vertex="1" parent="1">
          <mxGeometry x="348" y="310" width="120" height="40" as="geometry" />
        </mxCell>
        <mxCell id="RNsQ5LSbvm3LjU5OsM0Z-34" style="edgeStyle=orthogonalEdgeStyle;rounded=0;orthogonalLoop=1;jettySize=auto;html=1;" edge="1" parent="1" source="RNsQ5LSbvm3LjU5OsM0Z-33" target="RNsQ5LSbvm3LjU5OsM0Z-12">
          <mxGeometry relative="1" as="geometry" />
        </mxCell>
        <mxCell id="RNsQ5LSbvm3LjU5OsM0Z-33" value="Backend Server for Retrieval and Update" style="rounded=0;whiteSpace=wrap;html=1;" vertex="1" parent="1">
          <mxGeometry x="630" y="410" width="160" height="40" as="geometry" />
        </mxCell>
        <mxCell id="RNsQ5LSbvm3LjU5OsM0Z-37" value="Model Registry&lt;div&gt;(MLFlow)&lt;/div&gt;" style="rounded=0;whiteSpace=wrap;html=1;" vertex="1" parent="1">
          <mxGeometry x="428" y="730" width="120" height="60" as="geometry" />
        </mxCell>
        <mxCell id="RNsQ5LSbvm3LjU5OsM0Z-43" value="Cloud&amp;nbsp;&lt;span style=&quot;background-color: transparent; color: light-dark(rgb(0, 0, 0), rgb(255, 255, 255));&quot;&gt;Storage Backup&lt;/span&gt;&lt;div&gt;&lt;span style=&quot;background-color: transparent; color: light-dark(rgb(0, 0, 0), rgb(255, 255, 255));&quot;&gt;&lt;br&gt;&lt;/span&gt;&lt;/div&gt;&lt;div&gt;&lt;span style=&quot;background-color: transparent; color: light-dark(rgb(0, 0, 0), rgb(255, 255, 255));&quot;&gt;&lt;br&gt;&lt;/span&gt;&lt;/div&gt;&lt;div&gt;&lt;span style=&quot;background-color: transparent; color: light-dark(rgb(0, 0, 0), rgb(255, 255, 255));&quot;&gt;&lt;br&gt;&lt;/span&gt;&lt;/div&gt;&lt;div&gt;&lt;span style=&quot;background-color: transparent; color: light-dark(rgb(0, 0, 0), rgb(255, 255, 255));&quot;&gt;&lt;br&gt;&lt;/span&gt;&lt;/div&gt;&lt;div&gt;&lt;span style=&quot;background-color: transparent; color: light-dark(rgb(0, 0, 0), rgb(255, 255, 255));&quot;&gt;&lt;br&gt;&lt;/span&gt;&lt;/div&gt;&lt;div&gt;&lt;span style=&quot;background-color: transparent; color: light-dark(rgb(0, 0, 0), rgb(255, 255, 255));&quot;&gt;&lt;br&gt;&lt;/span&gt;&lt;/div&gt;" style="whiteSpace=wrap;html=1;aspect=fixed;dashed=1;fillColor=none;" vertex="1" parent="1">
          <mxGeometry x="635" y="640" width="150" height="150" as="geometry" />
        </mxCell>
        <mxCell id="RNsQ5LSbvm3LjU5OsM0Z-44" value="Amazon S3 Bucket" style="rounded=0;whiteSpace=wrap;html=1;" vertex="1" parent="1">
          <mxGeometry x="650" y="700" width="120" height="30" as="geometry" />
        </mxCell>
        <mxCell id="RNsQ5LSbvm3LjU5OsM0Z-45" value="Amazon Glacier" style="rounded=0;whiteSpace=wrap;html=1;" vertex="1" parent="1">
          <mxGeometry x="650" y="740" width="120" height="30" as="geometry" />
        </mxCell>
        <mxCell id="RNsQ5LSbvm3LjU5OsM0Z-50" style="edgeStyle=orthogonalEdgeStyle;rounded=0;orthogonalLoop=1;jettySize=auto;html=1;entryX=0.5;entryY=0;entryDx=0;entryDy=0;" edge="1" parent="1" source="RNsQ5LSbvm3LjU5OsM0Z-48" target="RNsQ5LSbvm3LjU5OsM0Z-21">
          <mxGeometry relative="1" as="geometry" />
        </mxCell>
        <mxCell id="RNsQ5LSbvm3LjU5OsM0Z-48" value="API Gateway" style="rounded=0;whiteSpace=wrap;html=1;" vertex="1" parent="1">
          <mxGeometry x="253" y="160" width="120" height="40" as="geometry" />
        </mxCell>
        <mxCell id="RNsQ5LSbvm3LjU5OsM0Z-52" value="VM" style="text;html=1;align=center;verticalAlign=middle;whiteSpace=wrap;rounded=0;" vertex="1" parent="1">
          <mxGeometry x="410" y="477" width="30" height="21.5" as="geometry" />
        </mxCell>
        <mxCell id="RNsQ5LSbvm3LjU5OsM0Z-53" value="VM" style="text;html=1;align=center;verticalAlign=middle;whiteSpace=wrap;rounded=0;" vertex="1" parent="1">
          <mxGeometry x="410" y="547" width="30" height="21.5" as="geometry" />
        </mxCell>
        <mxCell id="RNsQ5LSbvm3LjU5OsM0Z-54" value="VM" style="text;html=1;align=center;verticalAlign=middle;whiteSpace=wrap;rounded=0;" vertex="1" parent="1">
          <mxGeometry x="620" y="390" width="30" height="21.5" as="geometry" />
        </mxCell>
        <mxCell id="RNsQ5LSbvm3LjU5OsM0Z-55" value="VM" style="text;html=1;align=center;verticalAlign=middle;whiteSpace=wrap;rounded=0;" vertex="1" parent="1">
          <mxGeometry x="343" y="290" width="30" height="21.5" as="geometry" />
        </mxCell>
        <mxCell id="RNsQ5LSbvm3LjU5OsM0Z-56" value="VM" style="text;html=1;align=center;verticalAlign=middle;whiteSpace=wrap;rounded=0;" vertex="1" parent="1">
          <mxGeometry x="160" y="290" width="30" height="21.5" as="geometry" />
        </mxCell>
        <mxCell id="RNsQ5LSbvm3LjU5OsM0Z-64" value="1" style="ellipse;whiteSpace=wrap;html=1;" vertex="1" parent="1">
          <mxGeometry x="388" y="169" width="22" height="20" as="geometry" />
        </mxCell>
        <mxCell id="RNsQ5LSbvm3LjU5OsM0Z-65" value="2" style="ellipse;whiteSpace=wrap;html=1;" vertex="1" parent="1">
          <mxGeometry x="360" y="425" width="22" height="20" as="geometry" />
        </mxCell>
        <mxCell id="RNsQ5LSbvm3LjU5OsM0Z-66" value="3" style="ellipse;whiteSpace=wrap;html=1;" vertex="1" parent="1">
          <mxGeometry x="388" y="750" width="22" height="20" as="geometry" />
        </mxCell>
        <mxCell id="RNsQ5LSbvm3LjU5OsM0Z-67" value="4" style="ellipse;whiteSpace=wrap;html=1;" vertex="1" parent="1">
          <mxGeometry x="608" y="760" width="22" height="20" as="geometry" />
        </mxCell>
        <mxCell id="RNsQ5LSbvm3LjU5OsM0Z-69" value="5" style="ellipse;whiteSpace=wrap;html=1;" vertex="1" parent="1">
          <mxGeometry x="768" y="380" width="22" height="20" as="geometry" />
        </mxCell>
        <mxCell id="RNsQ5LSbvm3LjU5OsM0Z-71" value="" style="rounded=0;whiteSpace=wrap;html=1;fillColor=none;dashed=1;" vertex="1" parent="1">
          <mxGeometry x="132" y="270.75" width="368" height="99.25" as="geometry" />
        </mxCell>
        <mxCell id="RNsQ5LSbvm3LjU5OsM0Z-73" value="Frontend" style="text;html=1;align=center;verticalAlign=middle;whiteSpace=wrap;rounded=0;" vertex="1" parent="1">
          <mxGeometry x="130" y="241" width="60" height="30" as="geometry" />
        </mxCell>
        <mxCell id="RNsQ5LSbvm3LjU5OsM0Z-74" value="&lt;font style=&quot;font-size: 17px;&quot;&gt;Considerations&lt;/font&gt;&lt;div&gt;&lt;font style=&quot;font-size: 17px;&quot;&gt;1. For security, utilize an API gateway to handle JWTs, HTTPS, and rate limiting.&lt;/font&gt;&lt;/div&gt;&lt;div&gt;&lt;font style=&quot;font-size: 17px;&quot;&gt;2. Subscribing the FastAPI Model Servers as the same consumer group allow the servers to partition and process data in parallel, which enables horizontal scaling.&lt;/font&gt;&lt;/div&gt;&lt;div&gt;&lt;font style=&quot;font-size: 17px;&quot;&gt;3. To handle model versioning and updates, utilize a model registry like MLFlow to centralize model development to facilitate update procedures.&lt;/font&gt;&lt;/div&gt;&lt;div&gt;&lt;font style=&quot;font-size: 17px;&quot;&gt;4. To increase system resiliency, perform daily database backups to cloud storage, which can also be utilize later for dated investigations or other data extraction.&lt;/font&gt;&lt;/div&gt;&lt;div&gt;&lt;font style=&quot;font-size: 17px;&quot;&gt;5. A separate backkend server for auditing appication to isolate the model to the application and modularize the system.&lt;/font&gt;&lt;/div&gt;" style="text;html=1;align=left;verticalAlign=middle;whiteSpace=wrap;rounded=0;strokeWidth=3;" vertex="1" parent="1">
          <mxGeometry x="70" y="850" width="730" height="190" as="geometry" />
        </mxCell>
      </root>
    </mxGraphModel>
  </diagram>
</mxfile>
